<svg width="1474" height="1266" viewBox="0 0 1474 1266" fill="none" xmlns="http://www.w3.org/2000/svg">
<path d="M19.172 59.3531L18.7284 60.0262L19.0565 60.7626L18.3834 60.319L17.647 60.6471L18.0906 59.9739L17.7625 59.2376L18.4356 59.6811L19.172 59.3531Z" fill="white"/>
<path d="M210.581 116.762L210.138 117.436L210.466 118.172L209.793 117.728L209.056 118.056L209.5 117.383L209.172 116.647L209.845 117.091L210.581 116.762Z" fill="white"/>
<path d="M93.5815 182.762L93.1379 183.436L93.466 184.172L92.7928 183.728L92.0565 184.056L92.5 183.383L92.172 182.647L92.8451 183.091L93.5815 182.762Z" fill="white"/>
<path d="M111.581 77.7625L111.138 78.4356L111.466 79.172L110.793 78.7284L110.056 79.0565L110.5 78.3834L110.172 77.647L110.845 78.0906L111.581 77.7625Z" fill="white"/>
<path d="M56.5815 102.762L56.1379 103.436L56.466 104.172L55.7928 103.728L55.0565 104.056L55.5 103.383L55.172 102.647L55.8451 103.091L56.5815 102.762Z" fill="white"/>
<path d="M404.581 165.762L404.138 166.436L404.466 167.172L403.793 166.728L403.056 167.056L403.5 166.383L403.172 165.647L403.845 166.091L404.581 165.762Z" fill="white"/>
<path d="M229.581 61.7625L229.138 62.4356L229.466 63.172L228.793 62.7284L228.056 63.0565L228.5 62.3834L228.172 61.647L228.845 62.0906L229.581 61.7625Z" fill="white"/>
<path d="M653.581 119.762L653.138 120.436L653.466 121.172L652.793 120.728L652.056 121.056L652.5 120.383L652.172 119.647L652.845 120.091L653.581 119.762Z" fill="white"/>
<path d="M421.581 283.762L421.138 284.436L421.466 285.172L420.793 284.728L420.056 285.056L420.5 284.383L420.172 283.647L420.845 284.091L421.581 283.762Z" fill="white"/>
<path d="M228.581 204.762L228.138 205.436L228.466 206.172L227.793 205.728L227.056 206.056L227.5 205.383L227.172 204.647L227.845 205.091L228.581 204.762Z" fill="white"/>
<path d="M220.581 359.762L220.138 360.436L220.466 361.172L219.793 360.728L219.056 361.056L219.5 360.383L219.172 359.647L219.845 360.091L220.581 359.762Z" fill="white"/>
<path d="M818.581 345.762L818.138 346.436L818.466 347.172L817.793 346.728L817.056 347.056L817.5 346.383L817.172 345.647L817.845 346.091L818.581 345.762Z" fill="white"/>
<path d="M1011.58 148.762L1011.14 149.436L1011.47 150.172L1010.79 149.728L1010.06 150.056L1010.5 149.383L1010.17 148.647L1010.84 149.091L1011.58 148.762Z" fill="white"/>
<path d="M1286.58 324.762L1286.14 325.436L1286.47 326.172L1285.79 325.728L1285.06 326.056L1285.5 325.383L1285.17 324.647L1285.85 325.091L1286.58 324.762Z" fill="white"/>
<path d="M1160.58 638.762L1160.14 639.436L1160.47 640.172L1159.79 639.728L1159.06 640.056L1159.5 639.383L1159.17 638.647L1159.85 639.091L1160.58 638.762Z" fill="white"/>
<path d="M1289.58 838.762L1289.14 839.436L1289.47 840.172L1288.79 839.728L1288.06 840.056L1288.5 839.383L1288.17 838.647L1288.85 839.091L1289.58 838.762Z" fill="white"/>
<path d="M980.581 873.762L980.138 874.436L980.466 875.172L979.793 874.728L979.056 875.056L979.5 874.383L979.172 873.647L979.845 874.091L980.581 873.762Z" fill="white"/>
<path d="M624.581 835.762L624.138 836.436L624.466 837.172L623.793 836.728L623.056 837.056L623.5 836.383L623.172 835.647L623.845 836.091L624.581 835.762Z" fill="white"/>
<path d="M800.581 456.762L800.138 457.436L800.466 458.172L799.793 457.728L799.056 458.056L799.5 457.383L799.172 456.647L799.845 457.091L800.581 456.762Z" fill="white"/>
<path d="M528.581 377.762L528.138 378.436L528.466 379.172L527.793 378.728L527.056 379.056L527.5 378.383L527.172 377.647L527.845 378.091L528.581 377.762Z" fill="white"/>
<path d="M319.581 755.762L319.138 756.436L319.466 757.172L318.793 756.728L318.056 757.056L318.5 756.383L318.172 755.647L318.845 756.091L319.581 755.762Z" fill="white"/>
<path d="M76.5815 641.762L76.1379 642.436L76.466 643.172L75.7928 642.728L75.0565 643.056L75.5 642.383L75.172 641.647L75.8451 642.091L76.5815 641.762Z" fill="white"/>
<path d="M79.5815 294.762L79.1379 295.436L79.466 296.172L78.7928 295.728L78.0565 296.056L78.5 295.383L78.172 294.647L78.8451 295.091L79.5815 294.762Z" fill="white"/>
<path d="M401.581 327.762L401.138 328.436L401.466 329.172L400.793 328.728L400.056 329.056L400.5 328.383L400.172 327.647L400.845 328.091L401.581 327.762Z" fill="white"/>
<path d="M968.581 330.762L968.138 331.436L968.466 332.172L967.793 331.728L967.056 332.056L967.5 331.383L967.172 330.647L967.845 331.091L968.581 330.762Z" fill="white"/>
<path d="M859.581 565.762L859.138 566.436L859.466 567.172L858.793 566.728L858.056 567.056L858.5 566.383L858.172 565.647L858.845 566.091L859.581 565.762Z" fill="white"/>
<path d="M726.581 688.762L726.138 689.436L726.466 690.172L725.793 689.728L725.056 690.056L725.5 689.383L725.172 688.647L725.845 689.091L726.581 688.762Z" fill="white"/>
<path d="M542.581 410.762L542.138 411.436L542.466 412.172L541.793 411.728L541.056 412.056L541.5 411.383L541.172 410.647L541.845 411.091L542.581 410.762Z" fill="white"/>
<path d="M759.581 229.762L759.138 230.436L759.466 231.172L758.793 230.728L758.056 231.056L758.5 230.383L758.172 229.647L758.845 230.091L759.581 229.762Z" fill="white"/>
<path d="M114.581 744.762L114.138 745.436L114.466 746.172L113.793 745.728L113.056 746.056L113.5 745.383L113.172 744.647L113.845 745.091L114.581 744.762Z" fill="white"/>
<path d="M90.5815 442.762L90.1379 443.436L90.466 444.172L89.7928 443.728L89.0565 444.056L89.5 443.383L89.172 442.647L89.8451 443.091L90.5815 442.762Z" fill="white"/>
<path d="M641.581 431.762L641.138 432.436L641.466 433.172L640.793 432.728L640.056 433.056L640.5 432.383L640.172 431.647L640.845 432.091L641.581 431.762Z" fill="white"/>
<path d="M862.581 856.762L862.138 857.436L862.466 858.172L861.793 857.728L861.056 858.056L861.5 857.383L861.172 856.647L861.845 857.091L862.581 856.762Z" fill="white"/>
<path d="M484.581 944.762L484.138 945.436L484.466 946.172L483.793 945.728L483.056 946.056L483.5 945.383L483.172 944.647L483.845 945.091L484.581 944.762Z" fill="white"/>
<path d="M481.581 575.762L481.138 576.436L481.466 577.172L480.793 576.728L480.056 577.056L480.5 576.383L480.172 575.647L480.845 576.091L481.581 575.762Z" fill="white"/>
<path d="M1257.58 122.762L1257.14 123.436L1257.47 124.172L1256.79 123.728L1256.06 124.056L1256.5 123.383L1256.17 122.647L1256.85 123.091L1257.58 122.762Z" fill="white"/>
<path d="M1342.58 80.7625L1342.14 81.4356L1342.47 82.172L1341.79 81.7284L1341.06 82.0565L1341.5 81.3834L1341.17 80.647L1341.85 81.0906L1342.58 80.7625Z" fill="white"/>
<path d="M1353.58 870.762L1353.14 871.436L1353.47 872.172L1352.79 871.728L1352.06 872.056L1352.5 871.383L1352.17 870.647L1352.85 871.091L1353.58 870.762Z" fill="white"/>
<path d="M1147.58 991.762L1147.14 992.436L1147.47 993.172L1146.79 992.728L1146.06 993.056L1146.5 992.383L1146.17 991.647L1146.85 992.091L1147.58 991.762Z" fill="white"/>
<path d="M1012.58 560.762L1012.14 561.436L1012.47 562.172L1011.79 561.728L1011.06 562.056L1011.5 561.383L1011.17 560.647L1011.84 561.091L1012.58 560.762Z" fill="white"/>
<path d="M588.228 644.525L587.341 645.871L587.998 647.344L586.651 646.457L585.179 647.113L586.066 645.767L585.409 644.294L586.756 645.181L588.228 644.525Z" fill="white"/>
<path d="M340.753 474.525L339.866 475.871L340.523 477.344L339.176 476.457L337.704 477.113L338.591 475.767L337.935 474.294L339.281 475.181L340.753 474.525Z" fill="white"/>
<path d="M938.753 186.525L937.866 187.871L938.523 189.344L937.176 188.457L935.704 189.113L936.591 187.767L935.935 186.294L937.281 187.181L938.753 186.525Z" fill="white"/>
<path d="M705.753 60.525L704.866 61.8712L705.523 63.3439L704.176 62.4568L702.704 63.113L703.591 61.7667L702.935 60.294L704.281 61.1811L705.753 60.525Z" fill="white"/>
<path d="M487.753 63.525L486.866 64.8712L487.523 66.3439L486.176 65.4568L484.704 66.113L485.591 64.7667L484.935 63.294L486.281 64.1811L487.753 63.525Z" fill="white"/>
<path d="M1115.75 31.525L1114.87 32.8712L1115.52 34.3439L1114.18 33.4568L1112.7 34.113L1113.59 32.7667L1112.93 31.294L1114.28 32.1811L1115.75 31.525Z" fill="white"/>
<path d="M913.753 647.525L912.866 648.871L913.523 650.344L912.176 649.457L910.704 650.113L911.591 648.767L910.935 647.294L912.281 648.181L913.753 647.525Z" fill="white"/>
<path d="M215.753 623.525L214.866 624.871L215.522 626.344L214.176 625.457L212.703 626.113L213.591 624.767L212.934 623.294L214.281 624.181L215.753 623.525Z" fill="white"/>
<path d="M182.753 939.525L181.866 940.871L182.522 942.344L181.176 941.457L179.703 942.113L180.591 940.767L179.934 939.294L181.281 940.181L182.753 939.525Z" fill="white"/>
<path d="M72.7534 564.525L71.8663 565.871L72.5225 567.344L71.1762 566.457L69.7035 567.113L70.5906 565.767L69.9344 564.294L71.2807 565.181L72.7534 564.525Z" fill="white"/>
<path d="M61.7534 877.525L60.8663 878.871L61.5225 880.344L60.1762 879.457L58.7035 880.113L59.5906 878.767L58.9344 877.294L60.2807 878.181L61.7534 877.525Z" fill="white"/>
<path d="M23.7534 331.525L22.8663 332.871L23.5225 334.344L22.1762 333.457L20.7035 334.113L21.5906 332.767L20.9344 331.294L22.2807 332.181L23.7534 331.525Z" fill="white"/>
<path d="M750.401 95.1356L749.611 95.2979L749.322 96.0506L749.16 95.261L748.407 94.9723L749.197 94.8099L749.486 94.0573L749.648 94.8469L750.401 95.1356Z" fill="white"/>
<path d="M958.997 238.678L958.207 238.84L957.919 239.593L957.756 238.803L957.004 238.515L957.793 238.352L958.082 237.6L958.244 238.389L958.997 238.678Z" fill="white"/>
<path d="M678.983 190.595L678.193 190.757L677.904 191.51L677.742 190.72L676.989 190.432L677.779 190.269L678.068 189.516L678.23 190.306L678.983 190.595Z" fill="white"/>
<path d="M483.114 102.207L482.325 102.369L482.036 103.122L481.873 102.332L481.121 102.043L481.91 101.881L482.199 101.128L482.361 101.918L483.114 102.207Z" fill="white"/>
<path d="M915.864 515.157L915.074 515.319L914.785 516.072L914.623 515.282L913.87 514.994L914.66 514.831L914.949 514.079L915.111 514.868L915.864 515.157Z" fill="white"/>
<path d="M1191.64 512.328L1190.85 512.491L1190.56 513.243L1190.39 512.454L1189.64 512.165L1190.43 512.003L1190.72 511.25L1190.88 512.04L1191.64 512.328Z" fill="white"/>
<path d="M1261.64 831.234L1260.85 831.396L1260.56 832.149L1260.4 831.359L1259.65 831.07L1260.43 830.908L1260.72 830.155L1260.89 830.945L1261.64 831.234Z" fill="white"/>
<path d="M950.512 964.17L949.722 964.332L949.433 965.085L949.271 964.295L948.518 964.006L949.308 963.844L949.597 963.091L949.759 963.881L950.512 964.17Z" fill="white"/>
<path d="M900.307 1196.81L899.518 1196.97L899.229 1197.72L899.066 1196.93L898.314 1196.64L899.103 1196.48L899.392 1195.73L899.554 1196.52L900.307 1196.81Z" fill="white"/>
<path d="M657.063 1003.06L656.273 1003.22L655.984 1003.98L655.822 1003.19L655.069 1002.9L655.859 1002.73L656.148 1001.98L656.31 1002.77L657.063 1003.06Z" fill="white"/>
<path d="M432.203 724.461L431.413 724.623L431.124 725.376L430.962 724.586L430.209 724.297L430.999 724.135L431.288 723.382L431.45 724.172L432.203 724.461Z" fill="white"/>
<path d="M824.647 580.918L823.857 581.08L823.568 581.833L823.406 581.043L822.653 580.754L823.443 580.592L823.732 579.839L823.894 580.629L824.647 580.918Z" fill="white"/>
<path d="M688.175 332.723L687.386 332.886L687.097 333.638L686.935 332.849L686.182 332.56L686.971 332.398L687.26 331.645L687.423 332.435L688.175 332.723Z" fill="white"/>
<path d="M273.103 452.224L272.314 452.387L272.025 453.139L271.863 452.35L271.11 452.061L271.9 451.899L272.188 451.146L272.351 451.936L273.103 452.224Z" fill="white"/>
<path d="M181.887 199.787L181.097 199.95L180.808 200.702L180.646 199.913L179.893 199.624L180.683 199.462L180.972 198.709L181.134 199.498L181.887 199.787Z" fill="white"/>
<path d="M633.728 207.566L632.938 207.728L632.65 208.481L632.487 207.691L631.735 207.402L632.524 207.24L632.813 206.487L632.975 207.277L633.728 207.566Z" fill="white"/>
<path d="M1032.54 610.616L1031.75 610.779L1031.46 611.531L1031.3 610.742L1030.54 610.453L1031.33 610.291L1031.62 609.538L1031.78 610.328L1032.54 610.616Z" fill="white"/>
<path d="M789.291 699.712L788.502 699.874L788.213 700.627L788.051 699.837L787.298 699.548L788.088 699.386L788.376 698.633L788.539 699.423L789.291 699.712Z" fill="white"/>
<path d="M608.272 692.641L607.482 692.803L607.194 693.556L607.031 692.766L606.279 692.477L607.068 692.315L607.357 691.562L607.519 692.352L608.272 692.641Z" fill="white"/>
<path d="M674.74 365.957L673.951 366.12L673.662 366.872L673.499 366.083L672.747 365.794L673.536 365.632L673.825 364.879L673.987 365.669L674.74 365.957Z" fill="white"/>
<path d="M956.169 391.413L955.379 391.576L955.09 392.328L954.928 391.539L954.175 391.25L954.965 391.088L955.254 390.335L955.416 391.124L956.169 391.413Z" fill="white"/>
<path d="M135.925 299.489L135.135 299.652L134.846 300.404L134.684 299.615L133.931 299.326L134.721 299.164L135.01 298.411L135.172 299.201L135.925 299.489Z" fill="white"/>
<path d="M332.501 68.9725L331.711 69.1348L331.422 69.8875L331.26 69.0979L330.507 68.8092L331.297 68.6468L331.585 67.8942L331.748 68.6838L332.501 68.9725Z" fill="white"/>
<path d="M729.894 450.81L729.105 450.972L728.816 451.725L728.654 450.936L727.901 450.647L728.691 450.484L728.979 449.732L729.142 450.521L729.894 450.81Z" fill="white"/>
<path d="M585.645 907.601L584.855 907.763L584.566 908.516L584.404 907.727L583.651 907.438L584.441 907.276L584.73 906.523L584.892 907.312L585.645 907.601Z" fill="white"/>
<path d="M256.133 702.54L255.343 702.702L255.055 703.455L254.892 702.666L254.14 702.377L254.929 702.214L255.218 701.462L255.38 702.251L256.133 702.54Z" fill="white"/>
<path d="M514.934 439.496L514.144 439.659L513.856 440.411L513.693 439.622L512.941 439.333L513.73 439.171L514.019 438.418L514.181 439.208L514.934 439.496Z" fill="white"/>
<path d="M1383.97 667.892L1383.18 668.054L1382.89 668.807L1382.73 668.017L1381.97 667.729L1382.76 667.566L1383.05 666.814L1383.22 667.603L1383.97 667.892Z" fill="white"/>
<path d="M1473.77 698.297L1472.98 698.46L1472.69 699.212L1472.53 698.423L1471.78 698.134L1472.57 697.972L1472.86 697.219L1473.02 698.009L1473.77 698.297Z" fill="white"/>
<path d="M922.935 1264.69L922.145 1264.85L921.856 1265.61L921.694 1264.82L920.941 1264.53L921.731 1264.36L922.02 1263.61L922.182 1264.4L922.935 1264.69Z" fill="white"/>
<path d="M691.711 1204.59L690.921 1204.75L690.632 1205.5L690.47 1204.71L689.717 1204.42L690.507 1204.26L690.796 1203.51L690.958 1204.3L691.711 1204.59Z" fill="white"/>
<path d="M901.014 804.364L900.225 804.526L899.936 805.279L899.774 804.489L899.021 804.2L899.811 804.038L900.099 803.285L900.262 804.075L901.014 804.364Z" fill="white"/>
<path d="M541.722 563.53L540.143 563.854L539.566 565.36L539.241 563.78L537.736 563.203L539.315 562.878L539.892 561.373L540.217 562.952L541.722 563.53Z" fill="white"/>
<path d="M486.939 268.33L485.36 268.655L484.783 270.16L484.458 268.581L482.953 268.004L484.532 267.679L485.109 266.174L485.434 267.753L486.939 268.33Z" fill="white"/>
<path d="M1113.44 487.533L1111.86 487.858L1111.28 489.363L1110.95 487.784L1109.45 487.207L1111.03 486.882L1111.61 485.377L1111.93 486.956L1113.44 487.533Z" fill="white"/>
<path d="M1037.78 233.682L1036.2 234.007L1035.62 235.512L1035.29 233.933L1033.79 233.355L1035.37 233.031L1035.95 231.525L1036.27 233.105L1037.78 233.682Z" fill="white"/>
<path d="M881.505 81.6542L879.926 81.9789L879.348 83.4842L879.024 81.905L877.518 81.3276L879.098 81.0029L879.675 79.4976L880 81.0768L881.505 81.6542Z" fill="white"/>
<path d="M1348.2 503.09L1346.62 503.414L1346.04 504.92L1345.71 503.341L1344.21 502.763L1345.79 502.438L1346.37 500.933L1346.69 502.512L1348.2 503.09Z" fill="white"/>
<path d="M769.782 795.832L768.203 796.157L767.625 797.662L767.301 796.083L765.795 795.505L767.375 795.181L767.952 793.675L768.277 795.255L769.782 795.832Z" fill="white"/>
<path d="M293.192 285.301L291.613 285.626L291.035 287.131L290.711 285.552L289.205 284.974L290.785 284.65L291.362 283.144L291.687 284.724L293.192 285.301Z" fill="white"/>
<path d="M46.4118 485.412L44.8325 485.737L44.2551 487.242L43.9305 485.663L42.4251 485.085L44.0044 484.761L44.5818 483.255L44.9064 484.835L46.4118 485.412Z" fill="white"/>
<path d="M233.795 142.465L232.216 142.79L231.638 144.295L231.314 142.716L229.808 142.139L231.388 141.814L231.965 140.309L232.29 141.888L233.795 142.465Z" fill="white"/>
<path d="M4.69247 356.012L3.11323 356.336L2.53584 357.842L2.21116 356.262L0.705826 355.685L2.28506 355.36L2.86245 353.855L3.18714 355.434L4.69247 356.012Z" fill="white"/>
</svg>
